#!OML:ASF F:\twosubjects\two\Thursday\Session 1\justin.ASF
:FULLY-SPECIFIED
:DEGREES
489
root -6.30303 17.8754 2.87849 -115.382 79.6096 244.753
lowerback 5.45752 -5.16507 -0.444012
upperback 0.942224 -6.70745 5.22007
thorax -1.38911 -3.31838 6.06931
lowerneck -21.1541 -3.45284 -8.15889
upperneck 29.8012 -3.64333 6.05354
head 13.9784 -1.5199 3.21188
rclavicle 4.32729e-014 3.97569e-015
rhumerus -25.178 29.3285 -85.457
rradius 105.552
rwrist -46.5426
rhand 8.16346 -1.89083
rfingers 7.12502
rthumb 33.3824 -28.8096
lclavicle 4.32729e-014 3.97569e-015
lhumerus 20.2035 -19.2672 83.0593
lradius 50.7906
lwrist 27.2128
lhand -4.57055 53.113
lfingers 7.12502
lthumb 21.206 81.9731
rfemur -19.2785 1.26905 25.7043
rtibia 34.6846
rfoot -13.9728 -5.8183
rtoes -21.3997
lfemur -31.5687 6.86886 -8.37071
ltibia 45.427
lfoot -6.23451 7.29718
ltoes -6.48614
490
root -6.23346 17.8867 2.8048 -109.735 80.0044 250.402
lowerback 5.42811 -5.21389 -0.546605
upperback 0.841761 -6.7766 5.29529
thorax -1.44799 -3.35156 6.21181
lowerneck -21.1736 -3.43256 -9.21168
upperneck 30.1901 -3.48713 6.84872
head 14.1813 -1.46421 3.76597
rclavicle -1.21787e-013 6.47044e-014
rhumerus -25.7667 29.9952 -85.5827
rradius 106.105
rwrist -46.3704
rhand 10.368 -1.82203
rfingers 7.12502
rthumb 35.4753 -28.2658
lclavicle -1.21787e-013 6.47044e-014
lhumerus 20.3962 -18.8275 83.3014
lradius 49.77
lwrist 28.3995
lhand -3.77187 53.8017
lfingers 7.12502
lthumb 21.973 82.5737
rfemur -18.9014 1.73929 25.4838
rtibia 34.2997
rfoot -13.745 -5.0014
rtoes -21.8285
lfemur -31.5273 6.54363 -7.92779
ltibia 43.5325
lfoot -4.94403 7.45306
ltoes -6.48784
491
root -6.16501 17.898 2.73388 -104.667 80.0655 255.711
lowerback 5.61349 -5.36242 -0.370805
upperback 0.910208 -6.96001 5.29634
thorax -1.48098 -3.44341 6.13998
lowerneck -21.2146 -3.2873 -9.54825
upperneck 30.334 -3.31877 7.34982
head 14.2524 -1.36245 4.07072
rclavicle 3.74709e-014 -3.60794e-014
rhumerus -26.0745 30.5859 -85.7535
rradius 106.538
rwrist -46.6549
rhand 10.9302 -1.88789
rfingers 7.12502
rthumb 36.008 -28.2024
lclavicle 3.74709e-014 -3.60794e-014
lhumerus 20.7873 -18.5755 83.1607
lradius 48.7164
lwrist 29.7622
lhand -2.90237 54.7461
lfingers 7.12502
lthumb 22.8077 83.4177
rfemur -18.2481 2.25015 25.5116
rtibia 33.8913
rfoot -13.5122 -4.59422
rtoes -23.2649
lfemur -31.3354 5.69729 -7.07334
ltibia 41.6733
lfoot -3.25569 7.33676
ltoes -9.87754
492
root -6.09634 17.9071 2.65831 -99.6742 79.99 260.944
lowerback 5.72243 -5.44443 -0.0630936
upperback 1.04459 -7.04857 5.2893
thorax -1.43123 -3.48918 5.96982
lowerneck -21.3257 -3.12375 -9.37956
upperneck 30.471 -3.13003 7.32654
head 14.3106 -1.26534 4.07285
rclavicle 3.55265e-014 -3.97569e-016
rhumerus -26.2849 30.9401 -85.7772
rradius 106.929
rwrist -46.9263
rhand 9.88064 -1.87396
rfingers 7.12502
rthumb 35.0131 -28.427
lclavicle 3.55265e-014 -3.97569e-016
lhumerus 21.1685 -18.7727 82.8563
lradius 47.9607
lwrist 31.2906
lhand -2.27507 55.3059
lfingers 7.12502
lthumb 23.4095 83.9021
rfemur -17.6229 2.89735 25.6006
rtibia 33.5477
rfoot -13.5462 -4.45267
rtoes -24.5659
lfemur -31.0596 4.85897 -6.13494
ltibia 39.8299
lfoot -1.78914 6.95967
ltoes -12.0972
493
root -6.02737 17.9096 2.57231 -94.5038 80.0482 266.147
lowerback 5.69314 -5.51196 -0.1294
upperback 1.06007 -7.14048 5.41793
thorax -1.36443 -3.53664 6.14112
lowerneck -21.3581 -2.87039 -8.8097
upperneck 30.657 -2.73087 6.61537
head 14.3318 -1.12812 3.75754
rclavicle 4.83916e-014 -1.35174e-014
rhumerus -26.6531 31.5317 -85.5773
rradius 107.341
rwrist -46.3804
rhand 9.27552 -1.14057
rfingers 7.12502
rthumb 34.4389 -27.8258
lclavicle 4.83916e-014 -1.35174e-014
lhumerus 21.418 -18.6983 82.8908
lradius 47.2869
lwrist 32.742
lhand -1.99081 55.3104
lfingers 7.12502
lthumb 23.6822 83.8715
rfemur -17.3398 3.30042 25.3827
rtibia 33.3999
rfoot -13.8101 -3.92441
rtoes -24.3336
lfemur -30.7115 4.01836 -5.43905
ltibia 37.8191
lfoot -0.480226 6.83913
ltoes -8.03669
